<svg xmlns="http://www.w3.org/2000/svg" xmlns:xlink="http://www.w3.org/1999/xlink" width="500" zoomAndPan="magnify" viewBox="0 0 375 374.999991" height="500" preserveAspectRatio="xMidYMid meet" version="1.0"><defs><clipPath id="ba00d70003"><path d="M 4.21875 0 L 370.96875 0 L 370.96875 375 L 4.21875 375 Z M 4.21875 0 " clip-rule="nonzero"/></clipPath><clipPath id="de2dfbedc6"><path d="M 296.8125 273.492188 L 367.453125 273.492188 L 367.453125 375 L 296.8125 375 Z M 296.8125 273.492188 " clip-rule="nonzero"/></clipPath><clipPath id="fad2d09745"><path d="M 374 273.492188 L 375 273.492188 L 375 375 L 374 375 Z M 374 273.492188 " clip-rule="nonzero"/></clipPath></defs><g clip-path="url(#ba00d70003)"><path fill="#1e3d4b" d="M 358.351562 193.832031 C 357.132812 193.84375 356.148438 194.835938 356.148438 196.054688 C 356.148438 196.296875 356.199219 196.523438 356.269531 196.734375 L 332.46875 208.410156 C 332.324219 208.082031 332.101562 207.796875 331.824219 207.570312 L 367.671875 157.910156 C 367.796875 157.949219 367.929688 157.980469 368.066406 157.992188 Z M 330.414062 207.058594 C 330.402344 207.058594 330.390625 207.058594 330.378906 207.058594 L 338.015625 142.769531 C 338.03125 142.769531 338.039062 142.773438 338.050781 142.773438 C 338.835938 142.773438 339.527344 142.359375 339.921875 141.738281 L 351.789062 147.597656 L 366.359375 154.800781 C 366.210938 155.105469 366.113281 155.441406 366.113281 155.800781 C 366.117188 156.621094 366.566406 157.332031 367.234375 157.71875 L 347.523438 185.023438 L 331.433594 207.3125 C 331.125 207.152344 330.78125 207.058594 330.414062 207.058594 Z M 328.273438 208.714844 L 286.472656 181.539062 C 286.738281 181.171875 286.898438 180.722656 286.894531 180.238281 C 286.894531 179.941406 286.835938 179.65625 286.726562 179.398438 L 300.5 169.054688 L 336.425781 142.058594 C 336.722656 142.382812 337.113281 142.613281 337.554688 142.714844 L 329.898438 207.125 C 329.105469 207.3125 328.484375 207.929688 328.273438 208.714844 Z M 284.667969 178.019531 C 284.074219 178.019531 283.53125 178.257812 283.132812 178.640625 L 254.574219 147.78125 C 255.054688 147.382812 255.371094 146.792969 255.386719 146.125 L 335.863281 140.925781 C 335.910156 141.199219 336.007812 141.453125 336.148438 141.6875 L 327.335938 148.300781 L 286.5 178.980469 C 286.097656 178.398438 285.429688 178.015625 284.667969 178.019531 Z M 264.050781 130.480469 L 271.292969 120.308594 C 271.617188 120.488281 271.984375 120.605469 272.382812 120.605469 C 273.609375 120.601562 274.609375 119.601562 274.605469 118.375 C 274.601562 117.375 273.933594 116.535156 273.015625 116.257812 L 275.738281 101.847656 C 275.789062 101.851562 275.832031 101.859375 275.878906 101.859375 C 276.492188 101.859375 277.046875 101.613281 277.445312 101.214844 L 294.929688 113.375 C 294.753906 113.699219 294.644531 114.054688 294.644531 114.449219 C 294.648438 115.675781 295.644531 116.667969 296.875 116.664062 C 297.578125 116.664062 298.199219 116.328125 298.605469 115.820312 L 329.390625 135.332031 L 336.0625 139.566406 C 335.925781 139.839844 335.84375 140.132812 335.832031 140.457031 L 255.351562 145.660156 C 255.234375 145.023438 254.84375 144.488281 254.308594 144.164062 Z M 253.875 143.964844 C 253.652344 143.890625 253.414062 143.839844 253.167969 143.839844 C 251.992188 143.839844 251.042969 144.753906 250.960938 145.90625 L 193.742188 148.402344 C 193.742188 148.363281 193.753906 148.324219 193.753906 148.285156 C 193.753906 148.242188 193.742188 148.203125 193.738281 148.160156 L 222.355469 137.414062 L 270.398438 119.375 C 270.527344 119.625 270.703125 119.851562 270.914062 120.035156 L 262.804688 131.425781 Z M 193.660156 147.691406 C 193.492188 147.078125 193.070312 146.578125 192.507812 146.300781 L 202.28125 112.726562 C 202.414062 112.746094 202.546875 112.765625 202.679688 112.765625 C 203.910156 112.761719 204.902344 111.765625 204.898438 110.539062 C 204.898438 109.34375 203.953125 108.378906 202.769531 108.328125 L 202.675781 106.773438 L 202.515625 104.25 C 203.378906 104.097656 204.066406 103.445312 204.277344 102.609375 L 230.070312 108.671875 L 270.183594 118.101562 C 270.171875 118.195312 270.160156 118.289062 270.160156 118.378906 C 270.160156 118.570312 270.1875 118.757812 270.238281 118.933594 L 221.839844 137.113281 Z M 191.527344 146.066406 C 190.300781 146.066406 189.304688 147.0625 189.308594 148.289062 C 189.308594 149.273438 189.949219 150.097656 190.832031 150.390625 L 187.90625 160.433594 C 187.777344 160.410156 187.648438 160.390625 187.511719 160.390625 C 187.089844 160.390625 186.703125 160.515625 186.363281 160.722656 L 167.933594 136.507812 C 168.363281 136.101562 168.636719 135.535156 168.632812 134.894531 C 168.632812 134.519531 168.53125 134.171875 168.371094 133.863281 L 176.953125 128.097656 L 200.976562 111.964844 C 201.210938 112.238281 201.5 112.460938 201.835938 112.597656 L 192.070312 146.140625 C 191.894531 146.09375 191.714844 146.066406 191.527344 146.066406 Z M 185.414062 161.921875 L 164.101562 157.304688 C 164.113281 157.222656 164.128906 157.144531 164.128906 157.0625 C 164.128906 156.070312 163.46875 155.238281 162.574219 154.953125 L 166.203125 137.101562 C 166.273438 137.105469 166.34375 137.117188 166.414062 137.117188 C 166.835938 137.117188 167.226562 136.996094 167.558594 136.792969 L 185.992188 161.003906 C 185.726562 161.253906 185.53125 161.566406 185.414062 161.921875 Z M 167.125 188.054688 C 166.78125 187.835938 166.375 187.707031 165.9375 187.707031 C 165.925781 187.707031 165.914062 187.710938 165.902344 187.710938 L 165.648438 185.632812 L 162.402344 159.226562 C 163.164062 159.050781 163.765625 158.488281 164.007812 157.761719 L 176.984375 160.574219 L 185.3125 162.378906 C 185.304688 162.460938 185.292969 162.539062 185.292969 162.621094 C 185.292969 163.242188 185.550781 163.804688 185.960938 164.207031 Z M 163.882812 189.097656 L 141.886719 182.777344 C 141.90625 182.65625 141.925781 182.527344 141.925781 182.394531 C 141.921875 181.8125 141.695312 181.289062 141.332031 180.894531 L 160.625 158.878906 C 160.988281 159.136719 161.425781 159.289062 161.90625 159.289062 C 161.917969 159.289062 161.929688 159.285156 161.941406 159.285156 L 165.253906 186.257812 L 165.441406 187.769531 C 164.730469 187.9375 164.152344 188.4375 163.882812 189.097656 Z M 140.980469 180.582031 C 140.613281 180.324219 140.175781 180.171875 139.699219 180.171875 C 139.5 180.171875 139.304688 180.210938 139.121094 180.257812 L 126.589844 148.035156 C 127.046875 147.792969 127.417969 147.410156 127.621094 146.929688 L 159.71875 156.648438 C 159.699219 156.785156 159.679688 156.921875 159.679688 157.066406 C 159.679688 157.648438 159.90625 158.171875 160.273438 158.566406 Z M 137.613281 181.648438 L 105.449219 173.800781 C 105.449219 173.769531 105.460938 173.742188 105.460938 173.714844 C 105.457031 173.050781 105.164062 172.46875 104.707031 172.0625 L 124.359375 147.929688 C 124.710938 148.15625 125.125 148.289062 125.578125 148.289062 C 125.777344 148.289062 125.96875 148.253906 126.15625 148.203125 L 138.6875 180.433594 C 138.191406 180.6875 137.804688 181.121094 137.613281 181.648438 Z M 127.863281 189.652344 L 115.613281 181.476562 L 105.285156 174.582031 C 105.328125 174.484375 105.351562 174.375 105.382812 174.265625 L 137.507812 182.101562 C 137.492188 182.199219 137.476562 182.296875 137.476562 182.402344 C 137.480469 182.757812 137.570312 183.085938 137.71875 183.382812 Z M 59.085938 194.871094 C 59.011719 194.707031 58.910156 194.558594 58.796875 194.417969 L 101.394531 174.964844 C 101.792969 175.554688 102.472656 175.941406 103.234375 175.941406 C 103.988281 175.941406 104.652344 175.5625 105.050781 174.992188 L 127.164062 189.75 Z M 58.421875 194.058594 C 58.054688 193.773438 57.585938 193.59375 57.082031 193.59375 C 57.023438 193.59375 56.964844 193.609375 56.910156 193.613281 L 66.328125 153.289062 C 66.46875 153.320312 66.617188 153.335938 66.769531 153.335938 C 67.699219 153.332031 68.492188 152.761719 68.824219 151.953125 L 90.3125 165.585938 L 101.335938 172.570312 C 101.132812 172.910156 101.011719 173.300781 101.011719 173.722656 C 101.011719 173.902344 101.039062 174.074219 101.078125 174.242188 Z M 55.9375 193.925781 L 44.03125 165.828125 C 44.453125 165.425781 44.71875 164.859375 44.714844 164.226562 C 44.714844 163.988281 44.667969 163.761719 44.597656 163.542969 L 61.222656 153.871094 L 64.683594 151.855469 C 64.890625 152.433594 65.320312 152.902344 65.878906 153.144531 L 56.40625 193.714844 C 56.238281 193.765625 56.082031 193.835938 55.9375 193.925781 Z M 55.359375 194.429688 L 41.101562 184.988281 C 41.265625 184.679688 41.359375 184.339844 41.359375 183.964844 C 41.359375 182.964844 40.691406 182.125 39.777344 181.847656 L 42.703125 166.433594 C 43 166.40625 43.28125 166.320312 43.535156 166.1875 L 55.546875 194.214844 C 55.476562 194.28125 55.417969 194.355469 55.359375 194.429688 Z M 39.136719 181.742188 C 38.71875 181.742188 38.335938 181.867188 38 182.066406 L 20.332031 158.617188 C 20.464844 158.367188 20.550781 158.089844 20.582031 157.792969 L 40.433594 163.402344 C 40.328125 163.660156 40.269531 163.941406 40.269531 164.234375 C 40.269531 165.371094 41.128906 166.296875 42.226562 166.425781 L 39.316406 181.761719 C 39.257812 181.753906 39.199219 181.742188 39.136719 181.742188 Z M 36.347656 189.84375 C 36.144531 189.789062 35.933594 189.75 35.714844 189.75 C 35.328125 189.75 34.96875 189.847656 34.644531 190.011719 L 19.753906 159.292969 C 19.859375 159.210938 19.957031 159.125 20.046875 159.019531 L 37.625 182.347656 C 37.1875 182.753906 36.910156 183.324219 36.910156 183.96875 C 36.914062 184.632812 37.210938 185.222656 37.671875 185.628906 Z M 60.949219 263.257812 C 60.195312 263.664062 59.683594 264.445312 59.683594 265.355469 C 59.683594 265.363281 59.683594 265.371094 59.683594 265.382812 L 9.21875 261.808594 C 9.148438 260.894531 8.570312 260.117188 7.757812 259.78125 L 35.464844 194.523438 C 35.546875 194.53125 35.625 194.546875 35.714844 194.546875 C 35.875 194.546875 36.03125 194.53125 36.183594 194.5 Z M 38.4375 290.519531 C 38.195312 290.519531 37.957031 290.570312 37.730469 290.640625 L 28.816406 276.480469 C 29.296875 276.039062 29.601562 275.414062 29.601562 274.714844 C 29.601562 274.644531 29.585938 274.578125 29.578125 274.507812 L 59.886719 266.316406 C 59.976562 266.535156 60.109375 266.726562 60.257812 266.902344 L 39.4375 290.746094 C 39.132812 290.605469 38.796875 290.519531 38.4375 290.519531 Z M 49.730469 308.152344 L 36.742188 301.34375 C 36.8125 301.121094 36.859375 300.890625 36.859375 300.644531 C 36.859375 299.792969 36.414062 299.050781 35.738281 298.625 L 37.382812 295.070312 C 37.707031 295.226562 38.0625 295.320312 38.4375 295.320312 C 38.894531 295.320312 39.320312 295.1875 39.683594 294.960938 L 50.25 307.605469 C 50.046875 307.761719 49.867188 307.941406 49.730469 308.152344 Z M 88.5625 370.664062 C 88.378906 370.792969 88.226562 370.945312 88.089844 371.117188 L 64.726562 358.894531 C 64.828125 358.621094 64.890625 358.339844 64.890625 358.035156 C 64.890625 356.710938 63.816406 355.636719 62.492188 355.636719 C 62.4375 355.636719 62.390625 355.648438 62.34375 355.652344 L 52.332031 311.796875 C 52.367188 311.789062 52.398438 311.773438 52.4375 311.761719 Z M 227.398438 246.703125 L 201.25 327.578125 C 201.207031 327.574219 201.171875 327.566406 201.128906 327.566406 C 199.910156 327.566406 198.917969 328.476562 198.761719 329.652344 L 92.066406 371.484375 C 92.046875 371.449219 92.03125 371.417969 92.011719 371.386719 L 227.210938 246.613281 C 227.273438 246.640625 227.335938 246.675781 227.398438 246.703125 Z M 217.566406 181.324219 C 217.886719 181.21875 218.167969 181.054688 218.410156 180.835938 L 262.480469 217.1875 C 262.332031 217.496094 262.242188 217.839844 262.242188 218.210938 C 262.242188 218.5 262.304688 218.777344 262.398438 219.042969 L 229.988281 242.785156 C 229.550781 242.347656 228.945312 242.074219 228.28125 242.074219 C 228.261719 242.074219 228.238281 242.082031 228.222656 242.082031 Z M 245.132812 183.859375 C 245.5 183.859375 245.839844 183.769531 246.15625 183.625 L 263.363281 216.183594 C 263.1875 216.300781 263.023438 216.4375 262.875 216.59375 L 218.859375 180.292969 C 218.988281 180.078125 219.085938 179.84375 219.144531 179.59375 L 242.738281 181.398438 C 242.738281 181.417969 242.734375 181.4375 242.734375 181.460938 C 242.734375 182.78125 243.8125 183.859375 245.132812 183.859375 Z M 254.910156 274.855469 C 254.910156 275.351562 255.054688 275.804688 255.3125 276.1875 L 202.6875 327.9375 L 263.617188 220.371094 C 263.722656 220.417969 263.828125 220.457031 263.941406 220.492188 L 257.242188 272.464844 C 255.945312 272.5 254.910156 273.554688 254.910156 274.855469 Z M 228.28125 246.875 C 229.605469 246.875 230.679688 245.800781 230.679688 244.472656 C 230.679688 244.070312 230.570312 243.695312 230.394531 243.363281 L 262.75 219.664062 C 262.832031 219.777344 262.925781 219.875 263.027344 219.972656 L 201.988281 327.734375 C 201.972656 327.726562 201.960938 327.722656 201.945312 327.71875 L 228.097656 246.855469 C 228.15625 246.859375 228.21875 246.875 228.28125 246.875 Z M 26.015625 289.097656 C 26.058594 288.917969 26.085938 288.730469 26.085938 288.53125 C 26.085938 287.574219 25.527344 286.753906 24.714844 286.371094 L 27.171875 277.109375 C 27.183594 277.109375 27.191406 277.113281 27.203125 277.113281 C 27.570312 277.113281 27.917969 277.027344 28.226562 276.875 L 37.085938 290.941406 C 36.75 291.171875 36.484375 291.488281 36.296875 291.859375 Z M 8.851562 263.292969 C 9.003906 263.0625 9.113281 262.796875 9.179688 262.515625 L 58.355469 265.996094 L 29.425781 273.816406 C 29.070312 272.9375 28.207031 272.316406 27.203125 272.316406 C 26.496094 272.316406 25.863281 272.632812 25.425781 273.121094 Z M 14.917969 115.917969 C 15.226562 115.84375 15.511719 115.707031 15.757812 115.523438 L 29.6875 133.949219 C 29.441406 134.308594 29.289062 134.746094 29.289062 135.21875 C 29.289062 136.082031 29.789062 136.820312 30.511719 137.1875 L 19.453125 155.621094 C 19.292969 155.53125 19.113281 155.457031 18.929688 155.414062 Z M 30.507812 87.1875 C 30.71875 87.253906 30.941406 87.300781 31.175781 87.300781 C 31.335938 87.300781 31.492188 87.28125 31.640625 87.25 L 42.921875 112.230469 L 43.269531 113.011719 C 42.796875 113.417969 42.492188 114.015625 42.492188 114.6875 C 42.492188 114.777344 42.511719 114.863281 42.515625 114.945312 L 16.589844 113.273438 C 16.441406 112.609375 16 112.0625 15.410156 111.773438 Z M 36.347656 64.878906 C 36.4375 64.890625 36.53125 64.902344 36.628906 64.902344 C 37.0625 64.902344 37.46875 64.773438 37.8125 64.554688 L 42.324219 70.253906 L 62.5 95.734375 C 62.277344 95.996094 62.109375 96.308594 62.027344 96.652344 L 43.464844 89.878906 L 33.132812 86.113281 C 33.296875 85.800781 33.402344 85.453125 33.402344 85.074219 C 33.402344 84.152344 32.839844 83.363281 32.039062 83.027344 Z M 38.511719 63.847656 L 77.332031 82.484375 C 77.246094 82.714844 77.191406 82.964844 77.191406 83.226562 C 77.191406 83.726562 77.367188 84.1875 77.648438 84.558594 L 65.804688 95.652344 C 65.398438 95.222656 64.828125 94.949219 64.1875 94.949219 C 63.675781 94.949219 63.214844 95.125 62.84375 95.410156 L 38.183594 64.269531 C 38.308594 64.144531 38.417969 64.003906 38.511719 63.847656 Z M 65.765625 41.976562 C 66.164062 42.574219 66.839844 42.964844 67.609375 42.964844 C 67.730469 42.964844 67.84375 42.945312 67.960938 42.925781 L 78.597656 81.160156 C 78.152344 81.335938 77.777344 81.65625 77.53125 82.058594 L 38.714844 63.421875 C 38.796875 63.1875 38.847656 62.945312 38.847656 62.683594 C 38.847656 62.28125 38.738281 61.910156 38.546875 61.582031 Z M 69.136719 42.351562 L 103.304688 70.1875 C 103.210938 70.4375 103.152344 70.699219 103.152344 70.980469 C 103.152344 71.128906 103.167969 71.277344 103.199219 71.421875 L 81.300781 82.050781 C 80.90625 81.421875 80.214844 81 79.414062 81 C 79.292969 81 79.171875 81.015625 79.050781 81.039062 L 68.414062 42.808594 C 68.683594 42.707031 68.933594 42.550781 69.136719 42.351562 Z M 89.472656 24.292969 C 89.878906 24.71875 90.445312 24.988281 91.082031 24.988281 C 91.207031 24.988281 91.328125 24.96875 91.453125 24.945312 L 99.464844 53.425781 C 98.644531 53.753906 98.066406 54.550781 98.066406 55.488281 C 98.066406 56.714844 99.058594 57.710938 100.285156 57.710938 C 100.417969 57.710938 100.539062 57.695312 100.660156 57.671875 L 103.929688 69.300781 C 103.777344 69.433594 103.636719 69.582031 103.523438 69.753906 L 69.550781 41.8125 C 69.726562 41.488281 69.832031 41.132812 69.832031 40.738281 C 69.832031 40.332031 69.71875 39.957031 69.527344 39.628906 Z M 93.167969 23.492188 L 129.074219 31.953125 C 129.0625 32.042969 129.046875 32.125 129.046875 32.214844 C 129.046875 32.632812 129.171875 33.015625 129.371094 33.347656 L 101.910156 53.976562 C 101.507812 53.539062 100.929688 53.261719 100.285156 53.261719 C 100.160156 53.261719 100.039062 53.28125 99.917969 53.300781 L 97.359375 44.214844 L 91.90625 24.824219 C 92.496094 24.582031 92.957031 24.097656 93.167969 23.492188 Z M 117.210938 15.632812 C 117.433594 16.628906 118.316406 17.371094 119.378906 17.371094 C 119.839844 17.371094 120.269531 17.226562 120.625 16.984375 L 129.957031 30.425781 C 129.601562 30.691406 129.328125 31.058594 129.179688 31.484375 L 93.273438 23.035156 C 93.289062 22.941406 93.304688 22.859375 93.304688 22.761719 C 93.304688 22.632812 93.289062 22.507812 93.265625 22.386719 Z M 121.597656 15.144531 C 121.597656 14.859375 121.542969 14.59375 121.445312 14.347656 L 155.800781 3.125 C 155.988281 3.554688 156.3125 3.902344 156.714844 4.132812 L 140.113281 41.554688 C 139.894531 41.488281 139.667969 41.4375 139.429688 41.4375 C 139.042969 41.4375 138.6875 41.546875 138.367188 41.722656 L 132.855469 33.777344 C 133.25 33.375 133.496094 32.824219 133.496094 32.214844 C 133.496094 30.988281 132.503906 29.992188 131.269531 29.992188 C 130.988281 29.992188 130.722656 30.050781 130.472656 30.144531 L 121.171875 16.445312 C 121.4375 16.082031 121.597656 15.632812 121.597656 15.144531 Z M 157.824219 4.445312 C 158.253906 4.445312 158.652344 4.316406 158.992188 4.101562 L 178.210938 28.808594 L 181.582031 33.136719 C 181.160156 33.546875 180.898438 34.109375 180.898438 34.738281 C 180.898438 34.808594 180.914062 34.878906 180.921875 34.949219 L 141.542969 42.992188 C 141.371094 42.457031 141.015625 42.019531 140.539062 41.746094 L 141.808594 38.886719 L 157.144531 4.324219 C 157.359375 4.394531 157.582031 4.445312 157.824219 4.445312 Z M 159.953125 2.820312 L 195.839844 8.988281 C 195.980469 9.632812 196.394531 10.164062 196.960938 10.46875 L 184.027344 32.710938 C 183.75 32.585938 183.445312 32.515625 183.117188 32.515625 C 182.691406 32.515625 182.289062 32.640625 181.949219 32.855469 L 172.460938 20.652344 L 159.363281 3.816406 C 159.640625 3.546875 159.839844 3.207031 159.953125 2.820312 Z M 198.015625 10.746094 C 198.152344 10.746094 198.289062 10.726562 198.421875 10.703125 L 210.046875 38.40625 C 209.605469 38.601562 209.25 38.941406 209.015625 39.363281 L 203.46875 38.316406 L 185.328125 34.914062 C 185.332031 34.851562 185.34375 34.792969 185.34375 34.734375 C 185.34375 34 184.980469 33.351562 184.429688 32.949219 L 197.398438 10.644531 C 197.59375 10.703125 197.800781 10.746094 198.015625 10.746094 Z M 200.0625 9.382812 L 232.230469 9.78125 C 232.28125 10.328125 232.523438 10.820312 232.898438 11.175781 L 211.859375 38.40625 C 211.582031 38.28125 211.273438 38.207031 210.953125 38.207031 C 210.792969 38.207031 210.640625 38.226562 210.492188 38.261719 L 198.871094 10.570312 C 199.40625 10.34375 199.835938 9.917969 200.0625 9.382812 Z M 233.273438 11.460938 C 233.613281 11.671875 234.007812 11.796875 234.4375 11.796875 C 234.621094 11.796875 234.796875 11.769531 234.96875 11.726562 L 244.300781 37.234375 C 243.621094 37.570312 243.140625 38.242188 243.074219 39.035156 L 240.515625 39.09375 L 213.035156 39.683594 C 212.886719 39.265625 212.613281 38.90625 212.265625 38.648438 L 219.695312 29.03125 Z M 236.328125 10.722656 L 268.808594 25.980469 C 268.730469 26.214844 268.675781 26.453125 268.675781 26.710938 C 268.675781 27.613281 269.222656 28.390625 270 28.738281 L 257.15625 68.542969 C 257.113281 68.542969 257.074219 68.53125 257.03125 68.53125 C 256.847656 68.53125 256.679688 68.558594 256.511719 68.597656 L 246.359375 41.148438 C 247.039062 40.769531 247.5 40.050781 247.5 39.21875 C 247.496094 37.992188 246.5 36.996094 245.273438 37 C 245.128906 37 244.980469 37.015625 244.84375 37.039062 L 235.414062 11.558594 C 235.796875 11.371094 236.109375 11.082031 236.328125 10.722656 Z M 270.875 28.929688 L 272.839844 49.539062 C 271.820312 49.742188 271.054688 50.644531 271.054688 51.71875 C 271.058594 52.300781 271.277344 52.816406 271.636719 53.210938 L 257.894531 68.707031 C 257.808594 68.667969 257.714844 68.648438 257.625 68.621094 L 264.132812 48.449219 L 270.445312 28.882812 C 270.585938 28.910156 270.730469 28.925781 270.875 28.929688 Z M 272.785156 27.875 L 291.914062 37.089844 C 291.828125 37.320312 291.773438 37.570312 291.773438 37.835938 C 291.773438 38.207031 291.878906 38.550781 292.042969 38.863281 L 280.890625 46.335938 L 274.976562 50.296875 C 274.574219 49.820312 273.976562 49.503906 273.300781 49.496094 L 271.34375 28.890625 C 271.953125 28.761719 272.464844 28.386719 272.785156 27.875 Z M 292.300781 39.25 C 292.640625 39.65625 293.117188 39.9375 293.664062 40.023438 L 292.28125 70.789062 C 292.167969 70.773438 292.058594 70.757812 291.945312 70.757812 C 291.4375 70.757812 290.976562 70.933594 290.601562 71.222656 L 274.90625 53.226562 C 275.273438 52.828125 275.503906 52.300781 275.503906 51.714844 C 275.503906 51.34375 275.398438 51 275.238281 50.6875 Z M 294.136719 40.042969 C 294.738281 40.003906 295.273438 39.730469 295.648438 39.308594 L 312.707031 51.582031 C 312.523438 51.90625 312.410156 52.277344 312.410156 52.679688 C 312.414062 53.1875 312.585938 53.644531 312.867188 54.015625 L 293.878906 71.898438 C 293.625 71.453125 293.230469 71.097656 292.746094 70.910156 Z M 313.195312 54.359375 C 313.453125 54.582031 313.761719 54.746094 314.105469 54.832031 L 310.238281 83.101562 C 310.097656 83.074219 309.960938 83.054688 309.8125 83.054688 C 309.070312 83.054688 308.417969 83.429688 308.015625 83.988281 L 293.539062 74.535156 C 293.933594 74.132812 294.171875 73.585938 294.171875 72.976562 C 294.171875 72.792969 294.140625 72.617188 294.097656 72.445312 Z M 314.632812 54.902344 C 315.082031 54.902344 315.492188 54.765625 315.835938 54.542969 L 334.074219 77.128906 C 333.824219 77.492188 333.667969 77.929688 333.667969 78.40625 C 333.671875 79.089844 333.988281 79.695312 334.476562 80.101562 L 312.816406 101.921875 C 312.417969 101.546875 311.882812 101.3125 311.296875 101.3125 C 311.21875 101.3125 311.144531 101.332031 311.066406 101.339844 L 310.4375 87.40625 C 311.363281 87.136719 312.042969 86.289062 312.039062 85.277344 C 312.039062 84.359375 311.484375 83.578125 310.691406 83.238281 L 312.503906 69.984375 L 314.566406 54.898438 C 314.589844 54.898438 314.609375 54.902344 314.632812 54.902344 Z M 309.820312 87.503906 C 309.875 87.503906 309.921875 87.492188 309.972656 87.488281 L 310.601562 101.441406 C 310.3125 101.535156 310.054688 101.683594 309.832031 101.878906 L 293.0625 74.894531 C 293.097656 74.878906 293.128906 74.863281 293.15625 74.84375 L 307.777344 84.394531 C 307.660156 84.667969 307.59375 84.964844 307.59375 85.285156 C 307.59375 86.511719 308.59375 87.503906 309.820312 87.503906 Z M 295.660156 102.671875 L 292.308594 75.3125 L 309.488281 102.257812 C 309.226562 102.621094 309.074219 103.0625 309.074219 103.542969 C 309.074219 104.046875 309.253906 104.503906 309.535156 104.875 L 298.511719 112.949219 C 298.105469 112.503906 297.519531 112.21875 296.871094 112.21875 C 296.855469 112.21875 296.847656 112.222656 296.832031 112.222656 Z M 289.746094 73.179688 L 286.625 72.921875 L 259.25 70.703125 C 259.238281 70.132812 259.007812 69.617188 258.644531 69.230469 L 272.023438 53.550781 C 272.378906 53.796875 272.8125 53.945312 273.277344 53.945312 C 273.753906 53.945312 274.195312 53.792969 274.554688 53.535156 L 290.261719 71.546875 C 289.929688 71.9375 289.722656 72.433594 289.722656 72.984375 C 289.722656 73.046875 289.742188 73.113281 289.746094 73.179688 Z M 274.789062 97.707031 L 258.53125 72.390625 C 258.882812 72.074219 259.125 71.652344 259.214844 71.171875 L 286.910156 73.417969 L 289.835938 73.65625 C 290.050781 74.3125 290.550781 74.832031 291.199219 75.066406 L 276.949219 97.699219 C 276.625 97.523438 276.269531 97.410156 275.875 97.410156 C 275.480469 97.410156 275.113281 97.527344 274.789062 97.707031 Z M 257.933594 72.789062 C 257.972656 72.769531 258 72.753906 258.035156 72.734375 L 274.402344 97.988281 C 273.945312 98.394531 273.65625 98.984375 273.65625 99.640625 C 273.660156 100.65625 274.34375 101.503906 275.277344 101.769531 L 272.851562 114.597656 L 272.5625 116.171875 C 272.496094 116.167969 272.441406 116.15625 272.375 116.15625 C 272.222656 116.15625 272.070312 116.167969 271.925781 116.203125 Z M 202.238281 99.847656 L 201.703125 91.320312 C 202.757812 91.140625 203.558594 90.230469 203.554688 89.128906 C 203.554688 87.902344 202.554688 86.910156 201.328125 86.910156 C 201.167969 86.910156 201.007812 86.933594 200.851562 86.964844 L 195.414062 70.714844 C 196.097656 70.402344 196.582031 69.757812 196.683594 68.988281 L 210.664062 69.328125 L 254.84375 70.40625 C 254.828125 70.523438 254.808594 70.640625 254.808594 70.761719 C 254.808594 70.882812 254.828125 71 254.847656 71.121094 L 203.808594 100.621094 C 203.429688 100.167969 202.871094 99.878906 202.238281 99.847656 Z M 200.640625 109.652344 L 177.40625 102.304688 C 177.433594 102.160156 177.449219 102.011719 177.449219 101.859375 C 177.449219 101.589844 177.394531 101.339844 177.304688 101.109375 L 198.984375 90.539062 L 199.453125 90.308594 C 199.828125 90.910156 200.480469 91.316406 201.234375 91.347656 L 201.773438 99.875 C 200.710938 100.046875 199.90625 100.960938 199.90625 102.066406 C 199.910156 103.265625 200.859375 104.234375 202.050781 104.277344 L 202.304688 108.355469 C 201.558594 108.480469 200.9375 108.980469 200.640625 109.652344 Z M 171.058594 118.394531 L 174.882812 104.050781 C 175 104.066406 175.109375 104.085938 175.230469 104.085938 C 176.136719 104.085938 176.917969 103.535156 177.261719 102.75 L 200.496094 110.097656 C 200.46875 110.242188 200.449219 110.390625 200.449219 110.546875 C 200.449219 110.917969 200.558594 111.265625 200.71875 111.574219 L 168.109375 133.476562 C 167.867188 133.1875 167.5625 132.960938 167.207031 132.824219 Z M 165.308594 132.976562 L 160.027344 125.6875 C 160.476562 125.28125 160.769531 124.695312 160.765625 124.039062 C 160.765625 122.808594 159.769531 121.816406 158.539062 121.820312 C 158.136719 121.820312 157.765625 121.933594 157.441406 122.121094 L 153.492188 116.679688 C 153.792969 116.304688 153.976562 115.828125 153.976562 115.308594 C 153.972656 114.082031 152.980469 113.085938 151.753906 113.085938 C 151.484375 113.085938 151.230469 113.148438 150.992188 113.230469 L 150.789062 112.949219 L 146.039062 106.398438 C 146.40625 106.003906 146.632812 105.480469 146.632812 104.894531 C 146.632812 104.796875 146.617188 104.695312 146.605469 104.597656 L 150.007812 104.300781 L 173.046875 102.285156 C 173.191406 103.042969 173.726562 103.660156 174.429688 103.933594 L 170.722656 117.839844 L 166.753906 132.707031 C 166.640625 132.6875 166.527344 132.671875 166.410156 132.671875 C 166.003906 132.671875 165.636719 132.789062 165.308594 132.976562 Z M 127.757812 145.710938 L 164.34375 135.703125 C 164.589844 136.324219 165.105469 136.804688 165.742188 137.007812 L 162.222656 154.324219 L 162.113281 154.863281 C 162.039062 154.855469 161.96875 154.839844 161.898438 154.839844 C 160.980469 154.84375 160.191406 155.402344 159.855469 156.199219 L 149.53125 153.074219 L 127.753906 146.480469 C 127.78125 146.347656 127.796875 146.207031 127.796875 146.0625 C 127.796875 145.945312 127.78125 145.828125 127.757812 145.710938 Z M 142.910156 126.542969 C 143.308594 126.910156 143.828125 127.132812 144.414062 127.132812 C 145.359375 127.128906 146.15625 126.539062 146.480469 125.707031 L 164.324219 134.164062 C 164.242188 134.394531 164.1875 134.640625 164.1875 134.898438 C 164.1875 135.019531 164.207031 135.132812 164.222656 135.253906 L 127.640625 145.257812 C 127.535156 144.996094 127.386719 144.761719 127.195312 144.558594 Z M 156.335938 123.871094 L 146.496094 124.171875 C 146.359375 123.78125 146.121094 123.445312 145.804688 123.191406 L 150.808594 117.320312 C 151.097656 117.457031 151.417969 117.535156 151.757812 117.535156 C 152.296875 117.535156 152.78125 117.335938 153.164062 117.023438 L 157.058594 122.394531 C 156.648438 122.765625 156.378906 123.285156 156.335938 123.871094 Z M 146.605469 124.636719 L 147.171875 124.621094 L 156.347656 124.34375 C 156.492188 125.425781 157.421875 126.265625 158.542969 126.265625 C 158.925781 126.265625 159.277344 126.160156 159.589844 125.992188 L 164.917969 133.257812 C 164.765625 133.398438 164.628906 133.558594 164.519531 133.742188 L 146.601562 125.246094 C 146.621094 125.132812 146.632812 125.023438 146.632812 124.910156 C 146.632812 124.8125 146.621094 124.722656 146.605469 124.636719 Z M 122.328125 116.132812 L 120.40625 99.636719 C 121.097656 99.460938 121.660156 98.964844 121.921875 98.308594 L 123.207031 98.679688 L 142.3125 104.1875 C 142.238281 104.414062 142.183594 104.648438 142.183594 104.894531 C 142.183594 106.125 143.183594 107.121094 144.414062 107.121094 C 144.886719 107.121094 145.328125 106.96875 145.683594 106.714844 L 147.277344 108.90625 L 150.566406 113.4375 C 149.941406 113.835938 149.527344 114.523438 149.53125 115.316406 C 149.53125 116.027344 149.871094 116.648438 150.394531 117.058594 L 145.335938 122.894531 C 145.054688 122.761719 144.738281 122.6875 144.40625 122.6875 C 143.179688 122.6875 142.183594 123.6875 142.183594 124.914062 C 142.183594 125.355469 142.320312 125.769531 142.542969 126.117188 L 126.84375 144.242188 C 126.480469 143.992188 126.042969 143.839844 125.570312 143.839844 C 125.5625 143.839844 125.554688 143.84375 125.546875 143.84375 Z M 111.785156 123.210938 L 108.421875 117.730469 C 108.945312 117.324219 109.289062 116.695312 109.289062 115.976562 C 109.289062 115.191406 108.878906 114.503906 108.265625 114.109375 L 113.546875 106.761719 L 118.808594 99.4375 C 119.121094 99.605469 119.476562 99.714844 119.863281 99.714844 C 119.890625 99.714844 119.914062 99.703125 119.941406 99.703125 L 121.855469 116.164062 L 125.082031 143.898438 C 124.921875 143.9375 124.765625 143.992188 124.617188 144.066406 Z M 123.4375 145.476562 L 105.96875 142.613281 L 106.996094 118.195312 C 107.019531 118.195312 107.042969 118.203125 107.0625 118.203125 C 107.40625 118.203125 107.730469 118.117188 108.023438 117.976562 L 111.839844 124.1875 L 124.21875 144.308594 C 123.84375 144.601562 123.566406 145.007812 123.4375 145.476562 Z M 104.152344 165.101562 L 105.941406 143.082031 L 123.359375 145.941406 C 123.355469 145.984375 123.351562 146.023438 123.351562 146.070312 C 123.351562 146.679688 123.597656 147.230469 123.996094 147.632812 L 104.324219 171.789062 C 104.109375 171.667969 103.878906 171.578125 103.632812 171.535156 Z M 33.347656 136.46875 C 33.519531 136.222656 33.636719 135.9375 33.695312 135.628906 L 90.761719 120.242188 C 91.097656 121.039062 91.886719 121.597656 92.808594 121.597656 C 94.039062 121.597656 95.03125 120.605469 95.03125 119.375 C 95.03125 119.277344 95.015625 119.1875 95.003906 119.09375 L 104.886719 116.433594 C 104.925781 116.597656 104.984375 116.761719 105.054688 116.914062 L 97.726562 123.257812 L 67.8125 149.15625 C 67.5 148.988281 67.148438 148.886719 66.761719 148.886719 C 66.175781 148.886719 65.644531 149.121094 65.242188 149.5 Z M 31.515625 137.441406 C 31.628906 137.441406 31.734375 137.421875 31.835938 137.40625 L 41.839844 162.113281 C 41.355469 162.265625 40.9375 162.570312 40.65625 162.984375 L 20.582031 157.304688 C 20.515625 156.742188 20.246094 156.246094 19.839844 155.890625 L 26.417969 144.921875 L 30.953125 137.359375 C 31.136719 137.40625 31.320312 137.441406 31.515625 137.441406 Z M 34.652344 130.5625 L 32.839844 133.4375 C 32.464844 133.160156 32.007812 132.992188 31.511719 132.992188 C 30.929688 132.992188 30.398438 133.222656 30.003906 133.589844 L 16.097656 115.199219 C 16.433594 114.808594 16.640625 114.3125 16.640625 113.761719 L 42.628906 115.421875 C 42.792969 115.890625 43.101562 116.285156 43.507812 116.546875 Z M 79.839844 101.003906 C 79.082031 101.210938 78.496094 101.800781 78.289062 102.558594 L 66.242188 98.015625 C 66.347656 97.753906 66.40625 97.472656 66.40625 97.167969 C 66.40625 96.75 66.285156 96.367188 66.085938 96.03125 L 77.972656 84.898438 C 78.320312 85.207031 78.769531 85.398438 79.265625 85.433594 Z M 81.5625 83.769531 L 92.394531 85.335938 L 99.894531 86.421875 C 99.894531 86.433594 99.894531 86.445312 99.894531 86.453125 C 99.894531 86.808594 99.984375 87.140625 100.132812 87.433594 L 96.199219 90.546875 L 82.097656 101.691406 C 81.691406 101.21875 81.097656 100.914062 80.425781 100.914062 C 80.382812 100.914062 80.347656 100.925781 80.300781 100.925781 L 79.730469 85.417969 C 80.628906 85.289062 81.34375 84.632812 81.5625 83.769531 Z M 101.929688 84.25 C 100.957031 84.335938 100.167969 85.027344 99.953125 85.957031 L 81.632812 83.3125 C 81.632812 83.28125 81.640625 83.25 81.640625 83.226562 C 81.640625 82.960938 81.589844 82.707031 81.503906 82.472656 L 103.34375 71.875 C 103.503906 72.234375 103.757812 72.542969 104.074219 72.773438 Z M 118.285156 72.558594 C 118.152344 72.726562 118.046875 72.917969 117.972656 73.125 L 108.582031 71.449219 L 107.570312 71.265625 C 107.585938 71.171875 107.605469 71.078125 107.605469 70.980469 C 107.605469 69.753906 106.605469 68.753906 105.375 68.753906 C 105 68.753906 104.652344 68.859375 104.335938 69.023438 L 101.109375 57.550781 C 101.34375 57.457031 101.554688 57.320312 101.738281 57.160156 Z M 118.121094 96.121094 L 106.121094 88.835938 L 104.035156 87.5625 C 104.222656 87.234375 104.339844 86.863281 104.339844 86.453125 C 104.339844 85.988281 104.195312 85.558594 103.949219 85.199219 L 118.246094 75.171875 C 118.582031 75.644531 119.09375 75.972656 119.6875 76.070312 L 119.6875 95.28125 C 119.046875 95.332031 118.492188 95.644531 118.121094 96.121094 Z M 118.015625 74.765625 L 103.644531 84.84375 C 103.308594 84.527344 102.878906 84.320312 102.402344 84.261719 L 104.503906 73.023438 C 104.769531 73.140625 105.070312 73.203125 105.375 73.203125 C 106.34375 73.203125 107.15625 72.582031 107.464844 71.722656 L 108.554688 71.917969 L 117.859375 73.585938 C 117.847656 73.683594 117.828125 73.785156 117.828125 73.886719 C 117.828125 74.199219 117.894531 74.496094 118.015625 74.765625 Z M 102.394531 88.648438 C 102.933594 88.582031 103.410156 88.328125 103.757812 87.945312 L 106.019531 89.320312 L 117.871094 96.519531 C 117.726562 96.808594 117.632812 97.136719 117.632812 97.484375 C 117.632812 98.164062 117.945312 98.765625 118.425781 99.171875 L 107.839844 113.902344 C 107.597656 113.808594 107.335938 113.753906 107.0625 113.753906 C 107.046875 113.753906 107.027344 113.757812 107.003906 113.757812 Z M 98.039062 111.539062 L 82.335938 104.261719 C 82.53125 103.929688 82.648438 103.550781 82.648438 103.140625 C 82.648438 102.75 82.542969 102.394531 82.367188 102.074219 L 96.054688 91.253906 L 100.386719 87.832031 C 100.753906 88.292969 101.292969 88.597656 101.914062 88.65625 L 106.449219 113.851562 C 105.902344 114.007812 105.449219 114.363281 105.164062 114.839844 Z M 91.195312 116.664062 L 81.761719 104.90625 C 81.871094 104.828125 81.960938 104.738281 82.050781 104.648438 L 104.96875 115.265625 C 104.894531 115.484375 104.847656 115.714844 104.84375 115.960938 L 94.898438 118.636719 C 94.59375 117.773438 93.777344 117.148438 92.808594 117.148438 C 92.4375 117.148438 92.097656 117.25 91.792969 117.410156 Z M 90.625 119.789062 L 33.726562 135.132812 C 33.707031 134.609375 33.507812 134.132812 33.183594 133.761719 L 35.296875 130.421875 L 43.929688 116.757812 C 44.171875 116.851562 44.441406 116.910156 44.71875 116.910156 C 45.570312 116.910156 46.300781 116.425781 46.671875 115.726562 L 71.511719 117.808594 L 90.585938 119.402344 C 90.585938 119.535156 90.605469 119.664062 90.625 119.789062 Z M 68.800781 117.109375 L 46.851562 115.269531 C 46.894531 115.117188 46.921875 114.953125 46.929688 114.789062 L 78.632812 104.445312 C 79.035156 105 79.683594 105.363281 80.425781 105.363281 C 80.761719 105.363281 81.074219 105.285156 81.359375 105.148438 L 91.398438 117.667969 C 91.011719 117.988281 90.730469 118.425781 90.628906 118.933594 Z M 102.410156 56.117188 L 151.398438 65.148438 C 151.394531 65.191406 151.382812 65.238281 151.382812 65.285156 C 151.382812 65.378906 151.398438 65.46875 151.414062 65.5625 L 122.132812 73.109375 C 121.816406 72.265625 121.007812 71.664062 120.058594 71.664062 C 119.507812 71.664062 119.011719 71.867188 118.628906 72.195312 L 102.0625 56.816406 C 102.21875 56.609375 102.335938 56.371094 102.410156 56.117188 Z M 137.207031 43.664062 C 137.207031 43.804688 137.226562 43.945312 137.25 44.078125 L 102.339844 54.625 C 102.296875 54.527344 102.246094 54.4375 102.191406 54.355469 L 106.457031 51.144531 L 129.652344 33.726562 C 130.058594 34.164062 130.628906 34.4375 131.269531 34.4375 C 131.667969 34.4375 132.039062 34.324219 132.359375 34.144531 L 137.960938 42.007812 C 137.503906 42.410156 137.207031 43 137.207031 43.664062 Z M 152.097656 63.660156 C 151.800781 63.933594 151.585938 64.285156 151.476562 64.6875 L 102.496094 55.65625 C 102.496094 55.597656 102.511719 55.542969 102.511719 55.488281 C 102.511719 55.34375 102.496094 55.207031 102.472656 55.074219 L 137.382812 44.527344 C 137.722656 45.324219 138.507812 45.886719 139.429688 45.886719 C 139.792969 45.886719 140.128906 45.792969 140.433594 45.640625 Z M 167.425781 81.535156 L 172 76.894531 C 172.363281 77.183594 172.804688 77.359375 173.300781 77.378906 L 174.839844 99.675781 C 173.808594 99.855469 173.027344 100.746094 173.003906 101.820312 L 154.824219 103.40625 L 146.492188 104.136719 C 146.375 103.820312 146.199219 103.539062 145.960938 103.308594 Z M 122.320312 73.546875 L 151.53125 66.058594 C 151.84375 66.902344 152.652344 67.507812 153.609375 67.503906 C 154.394531 67.503906 155.078125 67.09375 155.476562 66.476562 L 171.300781 74.386719 C 171.246094 74.542969 171.207031 74.703125 171.1875 74.871094 Z M 130.148438 86.21875 L 121.613281 75.46875 C 121.957031 75.132812 122.1875 74.679688 122.253906 74.171875 L 171.175781 75.347656 C 171.210938 75.808594 171.390625 76.230469 171.667969 76.570312 L 145.59375 103.023438 C 145.25 102.804688 144.847656 102.675781 144.414062 102.675781 C 144.050781 102.675781 143.714844 102.765625 143.410156 102.917969 Z M 120.152344 95.292969 L 120.152344 76.101562 C 120.554688 76.082031 120.929688 75.960938 121.242188 75.757812 L 143.015625 103.175781 C 142.816406 103.339844 142.644531 103.535156 142.511719 103.761719 L 123.210938 98.191406 L 122.046875 97.855469 C 122.066406 97.738281 122.082031 97.617188 122.082031 97.484375 C 122.082031 96.359375 121.242188 95.4375 120.152344 95.292969 Z M 199.25 89.886719 L 198.605469 90.203125 L 177.105469 100.683594 C 176.726562 100.082031 176.066406 99.671875 175.308594 99.644531 L 173.765625 77.351562 C 174.386719 77.238281 174.921875 76.875 175.246094 76.359375 L 179.332031 78.398438 L 199.253906 88.359375 C 199.164062 88.601562 199.105469 88.859375 199.105469 89.132812 C 199.109375 89.402344 199.164062 89.65625 199.25 89.886719 Z M 193.566406 66.679688 C 192.796875 67.03125 192.265625 67.800781 192.265625 68.703125 C 192.269531 69.929688 193.261719 70.921875 194.488281 70.921875 C 194.65625 70.921875 194.816406 70.902344 194.96875 70.867188 L 200.40625 87.117188 C 200.019531 87.292969 199.6875 87.578125 199.460938 87.9375 L 175.453125 75.941406 C 175.546875 75.699219 175.601562 75.4375 175.601562 75.164062 C 175.601562 73.933594 174.605469 72.941406 173.378906 72.941406 C 172.59375 72.941406 171.902344 73.351562 171.507812 73.96875 L 155.683594 66.0625 C 155.773438 65.816406 155.832031 65.554688 155.832031 65.277344 C 155.828125 64.738281 155.625 64.246094 155.304688 63.863281 L 167.1875 51.5625 L 181.757812 36.484375 C 182.140625 36.777344 182.609375 36.964844 183.125 36.960938 C 183.289062 36.960938 183.449219 36.941406 183.601562 36.902344 Z M 243.484375 40.53125 C 243.894531 41.082031 244.539062 41.449219 245.277344 41.445312 C 245.46875 41.445312 245.648438 41.414062 245.828125 41.367188 L 256.066406 68.761719 C 255.566406 69.003906 255.175781 69.421875 254.96875 69.945312 L 204.433594 68.707031 L 196.695312 68.519531 C 196.671875 68.261719 196.613281 68.015625 196.519531 67.792969 Z M 213.148438 40.148438 L 231.476562 39.753906 L 243.082031 39.503906 C 243.109375 39.722656 243.160156 39.933594 243.246094 40.125 L 196.277344 67.390625 C 196.140625 67.203125 195.976562 67.039062 195.785156 66.898438 L 202.046875 55.976562 L 209.851562 42.355469 C 210.179688 42.539062 210.554688 42.65625 210.957031 42.65625 C 212.183594 42.652344 213.175781 41.660156 213.175781 40.429688 C 213.175781 40.332031 213.160156 40.242188 213.148438 40.148438 Z M 209.46875 42.082031 L 208.964844 42.960938 L 195.382812 66.667969 C 195.109375 66.542969 194.808594 66.476562 194.484375 66.476562 C 194.324219 66.476562 194.164062 66.496094 194.007812 66.53125 L 184.042969 36.757812 C 184.621094 36.492188 185.054688 35.988281 185.242188 35.375 L 208.832031 39.800781 C 208.773438 40.003906 208.726562 40.214844 208.726562 40.4375 C 208.726562 41.089844 209.019531 41.671875 209.46875 42.082031 Z M 141.632812 43.453125 L 181.011719 35.40625 C 181.101562 35.683594 181.238281 35.941406 181.421875 36.15625 L 154.96875 63.535156 C 154.589844 63.242188 154.117188 63.058594 153.605469 63.058594 C 153.238281 63.058594 152.898438 63.15625 152.589844 63.3125 L 140.832031 45.375 C 141.332031 44.96875 141.65625 44.355469 141.65625 43.664062 C 141.65625 43.59375 141.636719 43.523438 141.632812 43.453125 Z M 64.1875 99.394531 C 64.886719 99.394531 65.5 99.0625 65.90625 98.566406 L 78.210938 103.050781 C 78.210938 103.082031 78.203125 103.109375 78.203125 103.140625 C 78.203125 103.457031 78.269531 103.757812 78.386719 104.03125 L 46.898438 114.304688 C 46.71875 113.257812 45.8125 112.460938 44.710938 112.460938 C 44.332031 112.460938 43.976562 112.570312 43.664062 112.742188 L 32.117188 87.167969 L 32.089844 87.101562 C 32.390625 86.960938 32.652344 86.757812 32.863281 86.511719 L 61.96875 97.128906 C 61.964844 97.140625 61.960938 97.15625 61.960938 97.167969 C 61.960938 98.398438 62.960938 99.394531 64.1875 99.394531 Z M 64.570312 151.378906 L 61.121094 153.386719 L 44.40625 163.113281 C 44.019531 162.453125 43.3125 162.007812 42.492188 162.007812 C 42.472656 162.007812 42.457031 162.011719 42.441406 162.015625 L 32.304688 137.289062 C 32.574219 137.183594 32.8125 137.035156 33.019531 136.839844 L 64.921875 149.867188 C 64.683594 150.222656 64.542969 150.652344 64.546875 151.113281 C 64.546875 151.203125 64.558594 151.289062 64.570312 151.378906 Z M 68.210938 149.433594 L 78.976562 140.109375 L 105.300781 117.320312 C 105.605469 117.714844 106.03125 118.007812 106.53125 118.128906 L 106.449219 120.011719 L 105.492188 142.792969 L 103.453125 167.890625 L 103.160156 171.5 C 102.550781 171.523438 102.007812 171.78125 101.621094 172.199219 L 90.289062 165.007812 L 68.953125 151.480469 C 68.972656 151.355469 68.992188 151.234375 68.992188 151.109375 C 68.992188 150.433594 68.683594 149.839844 68.210938 149.433594 Z M 204.078125 101.007812 L 254.972656 71.585938 C 255.300781 72.40625 256.097656 72.980469 257.039062 72.980469 C 257.191406 72.980469 257.34375 72.964844 257.488281 72.933594 L 258.375 75.679688 L 271.480469 116.347656 C 270.921875 116.59375 270.492188 117.066406 270.289062 117.648438 L 230.472656 108.285156 L 204.34375 102.140625 C 204.347656 102.113281 204.351562 102.085938 204.351562 102.058594 C 204.351562 101.675781 204.25 101.320312 204.078125 101.007812 Z M 277.332031 97.96875 L 279.472656 94.566406 L 291.683594 75.175781 C 291.730469 75.183594 291.773438 75.191406 291.816406 75.191406 L 296.371094 112.277344 C 295.902344 112.390625 295.5 112.644531 295.195312 112.996094 L 277.738281 100.847656 C 277.96875 100.5 278.105469 100.082031 278.101562 99.636719 C 278.101562 98.96875 277.800781 98.375 277.332031 97.96875 Z M 335.894531 80.628906 C 336.046875 80.628906 336.195312 80.609375 336.339844 80.578125 L 352.816406 117.640625 C 352.273438 117.953125 351.871094 118.488281 351.746094 119.125 L 299.089844 114.40625 C 299.085938 114.015625 298.972656 113.648438 298.785156 113.328125 L 300.277344 112.238281 L 309.859375 105.21875 C 310.25 105.558594 310.75 105.761719 311.304688 105.761719 C 312.53125 105.761719 313.523438 104.765625 313.523438 103.535156 C 313.523438 103.066406 313.375 102.632812 313.125 102.273438 L 334.871094 80.367188 C 335.183594 80.527344 335.527344 80.628906 335.894531 80.628906 Z M 339.1875 138.648438 C 338.855469 138.445312 338.464844 138.324219 338.042969 138.324219 C 337.339844 138.324219 336.71875 138.660156 336.3125 139.171875 L 332.390625 136.683594 L 298.859375 115.421875 C 298.941406 115.25 299.011719 115.070312 299.054688 114.871094 L 351.707031 119.589844 C 351.714844 120.214844 351.984375 120.773438 352.40625 121.171875 Z M 353.929688 121.78125 C 354.148438 121.78125 354.351562 121.738281 354.550781 121.679688 L 367.769531 153.65625 C 367.308594 153.78125 366.90625 154.042969 366.621094 154.40625 L 351.828125 147.097656 L 340.128906 141.3125 C 340.214844 141.074219 340.273438 140.816406 340.273438 140.546875 C 340.273438 139.90625 340 139.335938 339.566406 138.929688 L 352.78125 121.453125 C 353.117188 121.65625 353.507812 121.78125 353.929688 121.78125 Z M 368.339844 153.574219 C 368.304688 153.574219 368.269531 153.582031 368.242188 153.582031 L 354.984375 121.503906 C 355.675781 121.125 356.152344 120.398438 356.148438 119.554688 C 356.148438 118.324219 355.152344 117.332031 353.921875 117.332031 C 353.6875 117.332031 353.460938 117.382812 353.246094 117.449219 L 336.785156 80.4375 C 337.570312 80.09375 338.121094 79.3125 338.117188 78.398438 C 338.117188 77.171875 337.121094 76.179688 335.894531 76.179688 C 335.3125 76.183594 334.785156 76.40625 334.390625 76.773438 L 316.203125 54.25 C 316.605469 53.847656 316.859375 53.289062 316.859375 52.675781 C 316.855469 51.449219 315.855469 50.453125 314.628906 50.453125 C 313.972656 50.453125 313.386719 50.746094 312.980469 51.203125 L 295.921875 38.929688 C 296.109375 38.601562 296.222656 38.230469 296.222656 37.828125 C 296.222656 36.601562 295.226562 35.605469 294 35.605469 C 293.199219 35.605469 292.503906 36.03125 292.117188 36.664062 L 272.988281 27.453125 C 273.070312 27.21875 273.125 26.96875 273.125 26.703125 C 273.125 25.472656 272.125 24.484375 270.898438 24.484375 C 270.09375 24.484375 269.394531 24.917969 269.007812 25.558594 L 236.523438 10.296875 C 236.605469 10.070312 236.65625 9.824219 236.65625 9.574219 C 236.652344 8.34375 235.660156 7.347656 234.429688 7.347656 C 233.292969 7.351562 232.367188 8.210938 232.234375 9.3125 L 200.195312 8.914062 C 200.21875 8.785156 200.234375 8.652344 200.234375 8.515625 C 200.230469 7.289062 199.238281 6.296875 198.007812 6.296875 C 196.789062 6.300781 195.796875 7.285156 195.785156 8.503906 L 160.03125 2.359375 C 160.035156 2.3125 160.042969 2.265625 160.042969 2.214844 C 160.042969 0.988281 159.050781 -0.00390625 157.824219 -0.00390625 C 156.59375 -0.00390625 155.597656 0.988281 155.597656 2.214844 C 155.597656 2.375 155.613281 2.53125 155.652344 2.679688 L 121.234375 13.921875 C 120.835938 13.320312 120.152344 12.921875 119.378906 12.921875 C 118.152344 12.921875 117.152344 13.917969 117.152344 15.144531 C 117.152344 15.148438 117.15625 15.15625 117.15625 15.160156 L 93.140625 21.933594 C 92.816406 21.117188 92.015625 20.539062 91.082031 20.539062 C 89.851562 20.539062 88.855469 21.53125 88.855469 22.761719 C 88.855469 23.1875 88.984375 23.578125 89.191406 23.917969 L 69.25 39.25 C 68.84375 38.804688 68.261719 38.515625 67.609375 38.515625 C 66.382812 38.515625 65.386719 39.507812 65.386719 40.738281 C 65.386719 41.027344 65.445312 41.304688 65.546875 41.554688 L 38.273438 61.203125 C 37.867188 60.75 37.285156 60.457031 36.628906 60.457031 C 35.398438 60.457031 34.402344 61.453125 34.402344 62.683594 C 34.402344 63.652344 35.023438 64.464844 35.890625 64.769531 L 31.585938 82.894531 C 31.453125 82.867188 31.320312 82.851562 31.175781 82.851562 C 29.945312 82.851562 28.953125 83.847656 28.953125 85.074219 C 28.953125 85.902344 29.40625 86.609375 30.070312 86.996094 L 14.960938 111.601562 C 14.789062 111.558594 14.609375 111.527344 14.421875 111.527344 C 13.191406 111.53125 12.195312 112.53125 12.195312 113.757812 C 12.199219 114.984375 13.195312 115.976562 14.425781 115.976562 C 14.433594 115.976562 14.445312 115.972656 14.449219 115.972656 L 18.453125 155.34375 C 18.429688 155.339844 18.40625 155.335938 18.378906 155.335938 C 17.152344 155.335938 16.15625 156.335938 16.160156 157.5625 C 16.160156 158.792969 17.15625 159.785156 18.386719 159.78125 C 18.648438 159.78125 18.898438 159.722656 19.128906 159.636719 L 34.054688 190.421875 C 33.601562 190.855469 33.3125 191.46875 33.3125 192.148438 C 33.3125 193.136719 33.910156 193.984375 34.769531 194.351562 L 7.058594 259.621094 C 6.984375 259.613281 6.914062 259.597656 6.839844 259.597656 C 5.511719 259.597656 4.441406 260.671875 4.441406 261.996094 C 4.441406 263.324219 5.511719 264.398438 6.839844 264.398438 C 7.421875 264.398438 7.949219 264.175781 8.367188 263.828125 L 25.03125 273.710938 C 24.890625 274.015625 24.800781 274.355469 24.800781 274.714844 C 24.800781 275.785156 25.503906 276.675781 26.46875 276.988281 L 24.03125 286.167969 C 23.917969 286.152344 23.808594 286.132812 23.691406 286.132812 C 22.367188 286.132812 21.292969 287.207031 21.292969 288.53125 C 21.292969 289.855469 22.367188 290.929688 23.691406 290.929688 C 24.566406 290.929688 25.324219 290.457031 25.742188 289.757812 L 36.082031 292.535156 C 36.058594 292.660156 36.039062 292.789062 36.039062 292.917969 C 36.039062 293.605469 36.332031 294.21875 36.792969 294.660156 L 35.089844 298.339844 C 34.890625 298.285156 34.679688 298.246094 34.460938 298.246094 C 33.136719 298.246094 32.058594 299.324219 32.058594 300.644531 C 32.058594 301.972656 33.136719 303.042969 34.460938 303.042969 C 35.285156 303.042969 36.011719 302.625 36.445312 301.992188 L 49.433594 308.796875 C 49.371094 309.015625 49.324219 309.246094 49.324219 309.480469 C 49.324219 310.773438 50.34375 311.816406 51.617188 311.871094 L 61.648438 355.796875 C 60.738281 356.140625 60.09375 357.007812 60.09375 358.035156 C 60.09375 359.363281 61.164062 360.433594 62.492188 360.433594 C 63.257812 360.433594 63.933594 360.066406 64.375 359.507812 L 87.730469 371.730469 C 87.621094 372.003906 87.554688 372.296875 87.554688 372.605469 C 87.554688 373.933594 88.632812 375.007812 89.953125 375.007812 C 91.28125 375.007812 92.355469 373.933594 92.355469 372.605469 C 92.355469 372.449219 92.339844 372.296875 92.3125 372.148438 L 198.777344 330.410156 C 198.882812 330.992188 199.207031 331.496094 199.65625 331.847656 L 199.570312 331.992188 L 199.691406 331.875 C 200.089844 332.179688 200.585938 332.363281 201.128906 332.363281 C 202.453125 332.363281 203.523438 331.292969 203.523438 329.964844 C 203.523438 329.441406 203.351562 328.957031 203.066406 328.5625 L 255.796875 276.707031 C 256.210938 277.046875 256.730469 277.257812 257.308594 277.257812 C 258.632812 277.257812 259.707031 276.183594 259.707031 274.855469 C 259.707031 273.753906 258.957031 272.835938 257.945312 272.554688 L 264.640625 220.609375 C 265.96875 220.609375 267.039062 219.53125 267.039062 218.210938 C 267.039062 216.882812 265.96875 215.808594 264.640625 215.808594 C 264.425781 215.808594 264.21875 215.847656 264.019531 215.898438 L 246.746094 183.230469 C 247.226562 182.785156 247.535156 182.160156 247.535156 181.460938 C 247.535156 180.132812 246.460938 179.058594 245.132812 179.058594 C 244.078125 179.058594 243.191406 179.746094 242.871094 180.695312 L 219.191406 178.882812 C 219.101562 177.640625 218.078125 176.660156 216.808594 176.660156 C 215.488281 176.660156 214.410156 177.734375 214.410156 179.058594 C 214.410156 180.382812 215.488281 181.460938 216.808594 181.460938 C 216.832031 181.460938 216.851562 181.453125 216.867188 181.453125 L 227.523438 242.207031 C 226.574219 242.527344 225.882812 243.417969 225.882812 244.472656 C 225.882812 245.148438 226.164062 245.757812 226.613281 246.195312 L 91.566406 370.835938 C 91.136719 370.449219 90.574219 370.207031 89.953125 370.207031 C 89.6875 370.207031 89.4375 370.257812 89.199219 370.339844 L 53.082031 311.457031 C 53.707031 311.027344 54.121094 310.300781 54.121094 309.480469 C 54.121094 308.160156 53.046875 307.082031 51.722656 307.082031 C 51.421875 307.082031 51.140625 307.144531 50.871094 307.246094 L 40.226562 294.507812 C 40.601562 294.082031 40.835938 293.53125 40.835938 292.917969 C 40.835938 292.210938 40.523438 291.582031 40.035156 291.140625 L 60.789062 267.375 C 61.164062 267.613281 61.609375 267.757812 62.085938 267.757812 C 63.40625 267.757812 64.484375 266.6875 64.484375 265.355469 C 64.484375 264.035156 63.40625 262.957031 62.085938 262.957031 C 61.921875 262.957031 61.765625 262.976562 61.613281 263.003906 L 36.84375 194.25 C 37.597656 193.847656 38.113281 193.0625 38.113281 192.148438 C 38.113281 191.296875 37.667969 190.554688 37 190.128906 L 38.292969 186.023438 C 38.554688 186.128906 38.839844 186.191406 39.140625 186.191406 C 39.832031 186.191406 40.4375 185.867188 40.847656 185.375 L 55.105469 194.820312 C 54.953125 195.125 54.859375 195.460938 54.859375 195.824219 C 54.859375 197.050781 55.859375 198.042969 57.085938 198.039062 C 58.316406 198.039062 59.308594 197.046875 59.308594 195.816406 C 59.308594 195.648438 59.285156 195.484375 59.25 195.324219 L 127.796875 190.171875 L 127.859375 190.214844 L 127.941406 190.164062 L 128.554688 190.113281 L 128.285156 189.941406 L 137.972656 183.777344 C 138.378906 184.285156 139 184.621094 139.703125 184.621094 C 140.636719 184.621094 141.425781 184.046875 141.761719 183.234375 L 163.753906 189.546875 C 163.734375 189.675781 163.71875 189.804688 163.71875 189.9375 C 163.722656 191.164062 164.714844 192.15625 165.941406 192.15625 C 167.167969 192.152344 168.167969 191.160156 168.164062 189.929688 C 168.164062 189.308594 167.90625 188.746094 167.496094 188.34375 L 186.328125 164.492188 C 186.675781 164.710938 187.082031 164.839844 187.515625 164.835938 C 188.746094 164.835938 189.742188 163.84375 189.742188 162.617188 C 189.742188 161.6875 189.167969 160.890625 188.359375 160.558594 L 191.289062 150.492188 C 191.371094 150.496094 191.449219 150.515625 191.53125 150.515625 C 192.558594 150.511719 193.410156 149.816406 193.664062 148.875 L 250.976562 146.375 C 251.128906 147.453125 252.050781 148.289062 253.171875 148.289062 C 253.535156 148.289062 253.875 148.195312 254.171875 148.039062 L 282.828125 179 C 282.585938 179.351562 282.445312 179.78125 282.449219 180.242188 C 282.449219 181.472656 283.449219 182.46875 284.675781 182.464844 C 285.246094 182.464844 285.761719 182.242188 286.152344 181.890625 L 328.195312 209.226562 C 328.195312 209.246094 328.191406 209.261719 328.191406 209.28125 C 328.195312 210.511719 329.191406 211.507812 330.417969 211.503906 C 331.648438 211.503906 332.640625 210.503906 332.640625 209.277344 C 332.640625 209.136719 332.621094 209 332.601562 208.867188 L 356.457031 197.164062 C 356.84375 197.828125 357.554688 198.277344 358.375 198.277344 C 359.605469 198.273438 360.601562 197.28125 360.597656 196.050781 C 360.597656 194.976562 359.835938 194.085938 358.824219 193.875 L 368.550781 158 C 369.683594 157.894531 370.5625 156.953125 370.5625 155.800781 C 370.558594 154.566406 369.566406 153.574219 368.339844 153.574219 " fill-opacity="1" fill-rule="nonzero"/></g><g clip-path="url(#de2dfbedc6)"><path fill="#ffffff" d="M 335.121094 410.269531 C 335.3125 410.269531 335.503906 410.300781 335.683594 410.371094 C 336.078125 410.523438 336.390625 410.828125 336.554688 411.214844 C 338.824219 416.546875 344.035156 419.996094 349.832031 419.996094 C 357.78125 419.996094 364.25 413.527344 364.25 405.574219 L 364.25 291.027344 C 364.25 283.078125 357.78125 276.609375 349.832031 276.609375 C 341.878906 276.609375 335.410156 283.078125 335.410156 291.027344 C 335.410156 291.265625 335.417969 291.5 335.429688 291.730469 C 335.445312 292.148438 335.300781 292.550781 335.019531 292.859375 C 334.738281 293.164062 334.347656 293.347656 333.933594 293.363281 C 325.175781 293.714844 317.824219 300.246094 316.457031 308.894531 C 316.378906 309.378906 316.082031 309.796875 315.648438 310.027344 C 309.605469 313.246094 305.851562 319.492188 305.851562 326.328125 C 305.851562 330.914062 307.542969 335.308594 310.617188 338.707031 C 310.972656 339.097656 311.101562 339.644531 310.964844 340.15625 C 310.828125 340.667969 310.441406 341.074219 309.9375 341.234375 C 303.949219 343.15625 299.929688 348.675781 299.929688 354.964844 C 299.929688 360.574219 303.222656 365.714844 308.320312 368.066406 C 308.808594 368.292969 309.148438 368.757812 309.210938 369.292969 C 309.277344 369.828125 309.0625 370.359375 308.644531 370.699219 C 305.214844 373.453125 303.246094 377.550781 303.246094 381.941406 C 303.246094 388.105469 307.164062 393.589844 312.988281 395.585938 C 313.628906 395.804688 314.050781 396.40625 314.042969 397.082031 L 314.039062 397.320312 C 314.039062 405.25 320.507812 411.71875 328.460938 411.71875 C 330.554688 411.71875 332.578125 411.277344 334.46875 410.410156 C 334.675781 410.316406 334.898438 410.269531 335.121094 410.269531 Z M 349.832031 423.113281 C 343.296875 423.113281 337.375 419.511719 334.347656 413.820312 C 332.464844 414.496094 330.492188 414.835938 328.460938 414.835938 C 319.074219 414.835938 311.386719 407.421875 310.941406 398.140625 C 304.433594 395.441406 300.132812 389.066406 300.132812 381.941406 C 300.132812 377.371094 301.886719 373.058594 305.007812 369.808594 C 299.964844 366.625 296.8125 361.019531 296.8125 354.96875 C 296.8125 348.070312 300.789062 341.933594 306.90625 339.082031 C 304.203125 335.398438 302.734375 330.945312 302.734375 326.332031 C 302.734375 318.59375 306.84375 311.507812 313.511719 307.648438 C 315.316406 298.410156 322.992188 291.390625 332.308594 290.363281 C 332.660156 281 340.386719 273.492188 349.832031 273.492188 C 359.5 273.492188 367.367188 281.359375 367.367188 291.03125 L 367.367188 405.578125 C 367.367188 415.246094 359.5 423.113281 349.832031 423.113281 " fill-opacity="1" fill-rule="evenodd"/></g><path fill="#ffffff" d="M 332.8125 318.320312 C 332.164062 318.320312 331.558594 317.910156 331.335938 317.261719 C 331.199219 316.855469 327.886719 307.769531 315.207031 310.183594 C 314.363281 310.34375 313.546875 309.789062 313.386719 308.941406 C 313.222656 308.097656 313.78125 307.28125 314.625 307.121094 C 330.050781 304.1875 334.25 316.144531 334.292969 316.265625 C 334.566406 317.082031 334.125 317.964844 333.308594 318.238281 C 333.144531 318.292969 332.976562 318.320312 332.8125 318.320312 " fill-opacity="1" fill-rule="evenodd"/><path fill="#ffffff" d="M 307.664062 371.042969 C 307.039062 371.042969 306.445312 370.660156 306.210938 370.039062 C 305.902344 369.234375 306.308594 368.332031 307.109375 368.027344 C 319.109375 363.457031 320.050781 355.691406 320.058594 355.613281 C 320.148438 354.753906 320.914062 354.136719 321.769531 354.222656 C 322.625 354.3125 323.25 355.078125 323.160156 355.933594 C 323.117188 356.328125 321.992188 365.691406 308.222656 370.941406 C 308.039062 371.011719 307.851562 371.042969 307.664062 371.042969 " fill-opacity="1" fill-rule="evenodd"/><path fill="#ffffff" d="M 338.699219 340.976562 C 337.683594 340.976562 336.675781 340.890625 335.679688 340.714844 C 327.964844 339.363281 323.804688 333.238281 323.632812 332.980469 C 323.15625 332.265625 323.347656 331.296875 324.066406 330.820312 C 324.777344 330.339844 325.746094 330.535156 326.222656 331.25 C 326.265625 331.308594 329.871094 336.550781 336.257812 337.652344 C 340.964844 338.464844 346.054688 336.878906 351.394531 332.9375 C 352.085938 332.425781 353.0625 332.574219 353.574219 333.265625 C 354.085938 333.957031 353.9375 334.933594 353.246094 335.445312 C 348.261719 339.125 343.382812 340.976562 338.699219 340.976562 " fill-opacity="1" fill-rule="evenodd"/><path fill="#ffffff" d="M 336.550781 354.839844 C 335.699219 354.839844 335.007812 354.164062 334.992188 353.3125 C 334.984375 352.839844 334.886719 341.773438 343.605469 337.097656 C 344.363281 336.691406 345.308594 336.976562 345.714844 337.734375 C 346.121094 338.492188 345.835938 339.4375 345.078125 339.84375 C 338.054688 343.613281 338.105469 353.160156 338.109375 353.257812 C 338.121094 354.117188 337.433594 354.828125 336.574219 354.839844 C 336.566406 354.839844 336.558594 354.839844 336.550781 354.839844 " fill-opacity="1" fill-rule="evenodd"/><path fill="#ffffff" d="M 331.296875 379.539062 C 326.613281 379.539062 321.730469 377.6875 316.746094 374.007812 C 316.054688 373.496094 315.90625 372.519531 316.417969 371.828125 C 316.929688 371.136719 317.90625 370.988281 318.597656 371.5 C 323.9375 375.4375 329.027344 377.023438 333.738281 376.214844 C 340.128906 375.113281 343.734375 369.863281 343.769531 369.808594 C 344.25 369.097656 345.21875 368.90625 345.929688 369.386719 C 346.644531 369.863281 346.835938 370.828125 346.359375 371.542969 C 346.1875 371.804688 342.027344 377.925781 334.3125 379.277344 C 333.316406 379.453125 332.308594 379.539062 331.296875 379.539062 " fill-opacity="1" fill-rule="evenodd"/><path fill="#ffffff" d="M 350.152344 314.25 C 349.304688 314.25 348.609375 313.570312 348.59375 312.71875 C 348.585938 312.25 348.492188 301.183594 357.207031 296.507812 C 357.964844 296.101562 358.910156 296.386719 359.320312 297.144531 C 359.722656 297.902344 359.441406 298.847656 358.679688 299.253906 C 351.621094 303.039062 351.710938 312.566406 351.710938 312.664062 C 351.726562 313.523438 351.039062 314.234375 350.179688 314.25 C 350.171875 314.25 350.160156 314.25 350.152344 314.25 " fill-opacity="1" fill-rule="evenodd"/><path fill="#ffffff" d="M 345.0625 304.8125 C 338.398438 304.8125 335.378906 301.605469 335.210938 301.421875 C 334.628906 300.78125 334.675781 299.796875 335.3125 299.21875 C 335.949219 298.644531 336.925781 298.683594 337.503906 299.3125 C 337.714844 299.53125 342.152344 303.953125 353.09375 300.195312 C 353.90625 299.914062 354.792969 300.347656 355.070312 301.160156 C 355.351562 301.976562 354.917969 302.863281 354.105469 303.140625 C 350.554688 304.363281 347.554688 304.8125 345.0625 304.8125 " fill-opacity="1" fill-rule="evenodd"/><path fill="#ffffff" d="M 348.585938 385.554688 C 348.480469 385.554688 348.371094 385.542969 348.261719 385.519531 C 347.417969 385.339844 346.878906 384.507812 347.0625 383.667969 C 347.144531 383.28125 349.152344 374.214844 355.585938 370.996094 C 358.789062 369.394531 362.449219 369.519531 366.460938 371.375 C 367.242188 371.734375 367.582031 372.660156 367.222656 373.441406 C 366.863281 374.222656 365.9375 374.566406 365.15625 374.203125 C 362.042969 372.769531 359.292969 372.625 356.980469 373.785156 C 351.871094 376.339844 350.125 384.242188 350.109375 384.320312 C 349.953125 385.054688 349.308594 385.554688 348.585938 385.554688 " fill-opacity="1" fill-rule="evenodd"/><path fill="#ffffff" d="M 357.121094 328.292969 C 355.691406 328.292969 354.292969 328.089844 352.929688 327.683594 C 346.398438 325.738281 343.191406 319.816406 343.058594 319.566406 C 342.65625 318.804688 342.945312 317.863281 343.703125 317.460938 C 344.464844 317.054688 345.402344 317.34375 345.808594 318.101562 C 345.847656 318.167969 348.585938 323.152344 353.847656 324.707031 C 357.246094 325.707031 361.015625 325.089844 365.054688 322.867188 C 365.808594 322.449219 366.757812 322.722656 367.171875 323.480469 C 367.589844 324.234375 367.3125 325.179688 366.558594 325.597656 C 363.300781 327.394531 360.136719 328.292969 357.121094 328.292969 " fill-opacity="1" fill-rule="evenodd"/><path fill="#ffffff" d="M 343.1875 364.804688 C 342.429688 364.804688 341.765625 364.25 341.648438 363.476562 C 341.523438 362.625 342.105469 361.828125 342.960938 361.703125 C 348.867188 360.816406 352.113281 350.027344 352.863281 345.945312 C 353.019531 345.097656 353.832031 344.539062 354.679688 344.695312 C 355.523438 344.851562 356.085938 345.664062 355.929688 346.511719 C 355.800781 347.199219 352.714844 363.390625 343.421875 364.785156 C 343.34375 364.796875 343.265625 364.804688 343.1875 364.804688 " fill-opacity="1" fill-rule="evenodd"/><g clip-path="url(#fad2d09745)"><path fill="#ffffff" d="M 391.746094 276.609375 C 383.796875 276.609375 377.328125 283.078125 377.328125 291.027344 L 377.328125 405.574219 C 377.328125 413.527344 383.796875 419.996094 391.746094 419.996094 C 397.542969 419.996094 402.753906 416.550781 405.023438 411.214844 C 405.1875 410.828125 405.5 410.523438 405.894531 410.371094 C 406.285156 410.21875 406.722656 410.234375 407.105469 410.410156 C 409 411.28125 411.019531 411.71875 413.117188 411.71875 C 421.066406 411.71875 427.539062 405.25 427.539062 397.296875 L 427.535156 397.082031 C 427.527344 396.410156 427.949219 395.804688 428.589844 395.585938 C 434.414062 393.589844 438.328125 388.105469 438.328125 381.941406 C 438.328125 377.550781 436.363281 373.453125 432.933594 370.699219 C 432.515625 370.359375 432.296875 369.828125 432.363281 369.292969 C 432.429688 368.757812 432.769531 368.292969 433.257812 368.070312 C 438.355469 365.71875 441.648438 360.574219 441.648438 354.964844 C 441.648438 348.675781 437.628906 343.15625 431.640625 341.234375 C 431.136719 341.074219 430.75 340.667969 430.613281 340.15625 C 430.476562 339.644531 430.605469 339.097656 430.960938 338.707031 C 434.035156 335.308594 435.726562 330.914062 435.726562 326.332031 C 435.726562 319.492188 431.972656 313.246094 425.925781 310.027344 C 425.496094 309.796875 425.199219 309.378906 425.121094 308.894531 C 423.753906 300.246094 416.402344 293.714844 407.644531 293.363281 C 407.226562 293.347656 406.835938 293.164062 406.554688 292.859375 C 406.273438 292.550781 406.128906 292.148438 406.148438 291.730469 C 406.160156 291.5 406.164062 291.265625 406.164062 291.03125 C 406.167969 283.078125 399.699219 276.609375 391.746094 276.609375 Z M 391.746094 423.113281 C 382.078125 423.113281 374.210938 415.246094 374.210938 405.574219 L 374.210938 291.027344 C 374.210938 281.359375 382.078125 273.492188 391.746094 273.492188 C 401.191406 273.492188 408.917969 281 409.269531 290.363281 C 418.585938 291.390625 426.261719 298.40625 428.066406 307.648438 C 434.734375 311.507812 438.84375 318.59375 438.84375 326.332031 C 438.84375 330.945312 437.375 335.398438 434.671875 339.082031 C 440.792969 341.933594 444.765625 348.070312 444.765625 354.964844 C 444.765625 361.019531 441.613281 366.625 436.570312 369.808594 C 439.691406 373.058594 441.445312 377.371094 441.445312 381.941406 C 441.445312 389.066406 437.144531 395.441406 430.632812 398.140625 C 430.183594 407.433594 422.5 414.835938 413.117188 414.835938 C 411.085938 414.835938 409.113281 414.492188 407.230469 413.820312 C 404.199219 419.511719 398.28125 423.113281 391.746094 423.113281 " fill-opacity="1" fill-rule="evenodd"/></g><path fill="#ffffff" d="M 392.992188 385.554688 C 392.273438 385.554688 391.625 385.054688 391.46875 384.324219 C 391.449219 384.226562 389.675781 376.316406 384.589844 373.777344 C 382.277344 372.628906 379.527344 372.769531 376.421875 374.203125 C 375.640625 374.5625 374.714844 374.222656 374.355469 373.441406 C 373.992188 372.660156 374.335938 371.734375 375.117188 371.375 C 379.128906 369.519531 382.789062 369.394531 385.992188 370.996094 C 392.425781 374.214844 394.433594 383.28125 394.515625 383.667969 C 394.695312 384.507812 394.160156 385.339844 393.320312 385.519531 C 393.207031 385.542969 393.097656 385.554688 392.992188 385.554688 " fill-opacity="1" fill-rule="evenodd"/><path fill="#ffffff" d="M 384.457031 328.292969 C 381.4375 328.292969 378.28125 327.394531 375.015625 325.597656 C 374.261719 325.179688 373.988281 324.234375 374.40625 323.480469 C 374.820312 322.722656 375.765625 322.449219 376.523438 322.867188 C 380.570312 325.097656 384.351562 325.710938 387.757812 324.695312 C 393.050781 323.121094 395.738281 318.152344 395.765625 318.105469 C 396.171875 317.34375 397.113281 317.054688 397.875 317.460938 C 398.632812 317.863281 398.921875 318.804688 398.519531 319.566406 C 398.386719 319.816406 395.175781 325.738281 388.648438 327.683594 C 387.285156 328.089844 385.886719 328.292969 384.457031 328.292969 " fill-opacity="1" fill-rule="evenodd"/></svg>