<svg xmlns="http://www.w3.org/2000/svg" xmlns:xlink="http://www.w3.org/1999/xlink" width="1080" zoomAndPan="magnify" viewBox="0 0 810 809.999993" height="1080" preserveAspectRatio="xMidYMid meet" version="1.0"><defs><clipPath id="8d20a31f2c"><path d="M 405 0 C 181.324219 0 0 181.324219 0 405 C 0 628.675781 181.324219 810 405 810 C 628.675781 810 810 628.675781 810 405 C 810 181.324219 628.675781 0 405 0 Z M 405 0 " clip-rule="nonzero"/></clipPath></defs><g clip-path="url(#8d20a31f2c)"><path stroke-linecap="butt" transform="matrix(0.75, 0, 0, 0.75, 0.0000035, 0.00002)" fill="none" stroke-linejoin="miter" d="M 540.000023 -0.0000266667 C 241.765632 -0.0000266667 -0.00000466667 241.76561 -0.00000466667 540.000001 C -0.00000466667 838.234391 241.765632 1080.000028 540.000023 1080.000028 C 838.234413 1080.000028 1080.00005 838.234391 1080.00005 540.000001 C 1080.00005 241.76561 838.234413 -0.0000266667 540.000023 -0.0000266667 Z M 540.000023 -0.0000266667 " stroke="#000000" stroke-width="8" stroke-opacity="1" stroke-miterlimit="4"/></g><path fill="#000000" d="M 378.050781 787.566406 C 385.464844 803.070312 404.046875 809.628906 419.550781 802.214844 C 435.058594 794.800781 441.613281 776.214844 434.199219 760.707031 L 144.546875 156.515625 C 137.132812 141.011719 118.550781 134.453125 103.046875 141.867188 C 87.539062 149.28125 80.984375 167.867188 88.398438 183.371094 Z M 378.050781 787.566406 " fill-opacity="1" fill-rule="nonzero"/><path fill="#000000" d="M 378.050781 760.710938 C 370.636719 776.214844 377.191406 794.800781 392.699219 802.214844 C 408.203125 809.628906 426.785156 803.070312 434.199219 787.566406 L 723.855469 183.375 C 731.269531 167.867188 724.710938 149.28125 709.207031 141.867188 C 693.703125 134.453125 675.121094 141.011719 667.707031 156.515625 Z M 378.050781 760.710938 " fill-opacity="1" fill-rule="nonzero"/></svg>